Coordinates
version=1
nRows=11
nColumns=40
inDegrees=yes

Units are S.I. units (second, meters, Newtons, ...)
Angles are in degrees.

endheader
time	pelvis_tilt	pelvis_list	pelvis_rotation	pelvis_tx	pelvis_ty	pelvis_tz	hip_flexion_r	hip_adduction_r	hip_rotation_r	knee_angle_r	knee_angle_r_beta	ankle_angle_r	subtalar_angle_r	mtp_angle_r	hip_flexion_l	hip_adduction_l	hip_rotation_l	knee_angle_l	knee_angle_l_beta	ankle_angle_l	subtalar_angle_l	mtp_angle_l	lumbar_extension	lumbar_bending	lumbar_rotation	arm_flex_r	arm_add_r	arm_rot_r	elbow_flex_r	pro_sup_r	wrist_flex_r	wrist_dev_r	arm_flex_l	arm_add_l	arm_rot_l	elbow_flex_l	pro_sup_l	wrist_flex_l	wrist_dev_l
     40.69250000	     -6.01189789	     -6.23989477	     -3.35523419	      0.98795034	      0.92979133	      0.42467816	     42.31209828	     -3.53801660	     -5.69539662	     67.84694494	     67.84694494	      0.83977556	    -16.86927400	      3.15143584	     15.27025720	     -7.62312060	     -5.59539395	     23.84538314	     23.84538314	     16.07067303	    -11.15902091	      1.94694929	    -12.91588267	      6.10447164	      3.26249647	     15.07381190	    -13.11864654	      1.55879515	     58.26337194	     46.09193594	      0.00000000	      0.00000000	     16.06706543	    -18.63998779	      0.87601550	     66.12265954	     46.77872961	      0.00000000	      0.00000000
     40.70385714	     -5.99089960	     -6.32186780	     -3.54511574	      0.98720677	      0.92988847	      0.42492738	     42.58959358	     -3.42074664	     -5.95808728	     65.41020430	     65.41020430	      0.70212893	    -16.51385903	      2.62031573	     14.52408763	     -7.70781200	     -5.77515451	     23.54407114	     23.54407114	     16.38530297	    -11.12867993	      1.89992212	    -13.02752481	      6.25578045	      3.01360229	     14.51550444	    -13.04283705	      1.78251475	     53.04528994	     46.21172794	      0.00000000	      0.00000000	     16.55559922	    -19.04748395	     -0.50156200	     69.30879162	     46.98494061	      0.00000000	      0.00000000
     40.71521429	     -6.00245265	     -6.33732149	     -3.76174757	      0.98653682	      0.92988964	      0.42526291	     42.75920346	     -3.32329079	     -6.18554619	     62.68489963	     62.68489963	      0.76858837	    -15.95235237	      2.60104946	     13.77082838	     -7.71871553	     -5.99328017	     23.18706668	     23.18706668	     16.68086364	    -11.09823931	      1.85464397	    -13.15066904	      6.34062402	      3.70862414	     12.66763758	    -13.73982956	      1.89931326	     50.28723012	     46.28169334	      0.00000000	      0.00000000	     18.00808736	    -18.93709633	     -1.00402098	     71.50850819	     47.07910245	      0.00000000	      0.00000000
     40.72657143	     -6.09084645	     -6.34634958	     -3.92759733	      0.98591277	      0.92980219	      0.42569285	     42.75942749	     -3.23707567	     -6.50972433	     59.50745725	     59.50745725	      0.51005268	    -15.45956775	      1.46978569	     13.08511413	     -7.73484589	     -6.21322019	     22.77696205	     22.77696205	     16.92386691	    -10.94375537	      1.63857050	    -13.09653248	      6.40701650	      3.11875504	     12.90206459	    -13.18315190	      1.58487201	     43.54108036	     46.48435620	      0.00000000	      0.00000000	     18.05101032	    -19.81924933	     -1.85375564	     75.04759820	     47.24845520	      0.00000000	      0.00000000
     40.73792857	     -6.19059539	     -6.35893798	     -4.08233345	      0.98541786	      0.92966779	      0.42616992	     42.59358458	     -3.13450995	     -6.89261781	     56.05970373	     56.05970373	      0.73821727	    -14.54596437	      1.52256883	     12.36220465	     -7.73019454	     -6.35972065	     22.29145862	     22.29145862	     17.19289679	    -10.85709336	      1.61669974	    -13.09765318	      6.53383631	      3.62909321	     10.92520915	    -13.84269137	      1.66483415	     41.60668036	     46.53161976	      0.00000000	      0.00000000	     19.33491285	    -19.70225880	     -2.36350724	     76.94372692	     47.33091190	      0.00000000	      0.00000000
     40.74928571	     -6.29922997	     -6.20071382	     -4.24745976	      0.98503455	      0.92937453	      0.42673615	     42.22911912	     -3.11236127	     -7.16117104	     52.21219659	     52.21219659	      0.38911698	    -13.84470488	     -0.37134428	     11.62688770	     -7.56523534	     -6.67058895	     21.76610465	     21.76610465	     17.36334027	    -10.66191446	      1.28647544	    -13.04477758	      6.39833329	      3.08313352	     11.22124044	    -13.40020376	      1.35361824	     35.00101501	     46.71758740	      0.00000000	      0.00000000	     19.22027916	    -20.25792165	     -3.84980175	     80.95124767	     47.56422876	      0.00000000	      0.00000000
     40.76064286	     -6.52116690	     -6.15577617	     -4.35430939	      0.98474401	      0.92884993	      0.42743444	     41.78370292	     -2.96704571	     -7.59404010	     48.14125375	     48.14125375	      0.77657214	    -12.65219368	     -0.17481129	     11.03408438	     -7.51955867	     -6.81704506	     21.27754515	     21.27754515	     17.63948717	    -10.49303250	      1.21664687	    -12.85077141	      6.48344346	      3.35087778	      9.26171998	    -13.89850770	      1.38751450	     33.64193405	     46.74841875	      0.00000000	      0.00000000	     20.31349249	    -20.38477205	     -4.18498240	     82.61611732	     47.62777226	      0.00000000	      0.00000000
     40.77200000	     -6.59453204	     -6.02120515	     -4.44533371	      0.98473268	      0.92843183	      0.42817987	     40.95114831	     -2.88854064	     -8.06464587	     43.78174840	     43.78174840	      1.17754806	    -11.06882168	     -0.12179692	     10.21080127	     -7.37881529	     -7.09843353	     20.69497239	     20.69497239	     17.91176948	    -10.13372348	      1.06480656	    -12.85556981	      6.38020259	      3.92988046	      7.32080903	    -14.45075450	      1.40745038	     31.78456984	     46.79915703	      0.00000000	      0.00000000	     21.32955350	    -20.16677276	     -4.33368886	     85.22339402	     47.69833264	      0.00000000	      0.00000000
     40.78335714	     -6.72354683	     -5.76733869	     -4.48858500	      0.98493098	      0.92753944	      0.42907581	     40.01481078	     -2.85572372	     -8.48205208	     39.25074555	     39.25074555	      1.27008982	     -9.55908553	     -1.18017973	      9.46133745	     -7.16528853	     -7.57263661	     20.12765656	     20.12765656	     18.06129654	     -9.50931029	      0.27598660	    -12.76805563	      6.13813056	      3.35837771	      6.86468635	    -14.18393006	      0.99898638	     27.81885559	     46.93954014	      0.00000000	      0.00000000	     20.98012672	    -21.12550396	     -4.96943965	     89.77254453	     47.86609952	      0.00000000	      0.00000000
     40.79471429	     -6.96741938	     -5.58603134	     -4.47462202	      0.98528117	      0.92646387	      0.43009755	     38.98278137	     -2.67397729	     -8.95809970	     34.56289892	     34.56289892	      1.67276365	     -7.91011569	     -0.62141420	      8.81866330	     -6.98106501	     -7.70793462	     19.53119831	     19.53119831	     18.33551482	     -9.17041494	      0.13806832	    -12.43583840	      6.07311654	      3.45960555	      4.92659368	    -14.45533112	      0.98157564	     26.80027635	     46.96116949	      0.00000000	      0.00000000	     21.84759926	    -21.18878405	     -5.34720169	     91.39847882	     47.93089458	      0.00000000	      0.00000000
     40.80607143	     -6.89585501	     -5.30288765	     -4.39550478	      0.98621048	      0.92544560	      0.43112599	     37.54161729	     -2.68739065	     -9.68953707	     30.09932138	     30.09932138	      2.22094135	     -5.52249560	      0.11287254	      7.74496511	     -6.69840351	     -8.09584590	     18.83200783	     18.83200783	     18.67672219	     -8.42465943	     -0.27468387	    -12.48926688	      5.77179468	      3.77421052	      2.88836320	    -14.75672909	      0.86234429	     25.73950547	     46.98645862	      0.00000000	      0.00000000	     22.45540195	    -21.05632161	     -5.53071648	     94.45601556	     48.01537797	      0.00000000	      0.00000000
